<svg width="900" height="1200" viewBox="0 0 900 1200" fill="none" xmlns="http://www.w3.org/2000/svg">
  <defs>
    <linearGradient id="bg" x1="60" y1="30" x2="840" y2="1170" gradientUnits="userSpaceOnUse">
      <stop offset="0" stop-color="#FEF1E2"/>
      <stop offset="1" stop-color="#F7E2CD"/>
    </linearGradient>
    <pattern id="orn" width="64" height="64" patternUnits="userSpaceOnUse">
      <rect width="64" height="64" fill="#90485A" fill-opacity="0.09"/>
      <path d="M32 6 L40 18 L32 30 L24 18 Z" fill="#90485A" fill-opacity="0.35"/>
      <path d="M6 32 L18 24 L30 32 L18 40 Z" fill="#90485A" fill-opacity="0.2"/>
    </pattern>
    <filter id="soft" x="0" y="0" width="900" height="1200" filterUnits="userSpaceOnUse">
      <feDropShadow dx="0" dy="16" stdDeviation="22" flood-color="#14303a" flood-opacity="0.12"/>
    </filter>
  </defs>

  <rect x="0" y="0" width="900" height="1200" fill="url(#bg)"/>
  <rect x="34" y="34" width="832" height="1132" rx="36" fill="url(#orn)"/>

  <rect x="74" y="74" width="752" height="1052" rx="48" fill="#FFFFFF" fill-opacity="0.84" filter="url(#soft)"/>

  <rect x="114" y="104" width="672" height="676" rx="46" fill="#F5EFE0"/>

  <path d="M220 516 C272 420, 628 420, 680 516" stroke="#90485A" stroke-width="14" stroke-linecap="round"/>
  <rect x="260" y="516" width="380" height="208" rx="28" fill="#EEDFB8"/>
  <ellipse cx="450" cy="516" rx="92" ry="46" fill="#E9C97A"/>
  <circle cx="450" cy="510" r="20" fill="#90485A"/>

  <circle cx="340" cy="584" r="42" fill="#F3C18A"/>
  <rect x="302" y="626" width="76" height="118" rx="20" fill="#5EAF87"/>
  <rect x="316" y="742" width="18" height="66" rx="8" fill="#B17A58"/>
  <rect x="346" y="742" width="18" height="66" rx="8" fill="#B17A58"/>

  <circle cx="560" cy="584" r="42" fill="#F3C18A"/>
  <rect x="522" y="626" width="76" height="118" rx="20" fill="#658DC4"/>
  <rect x="536" y="742" width="18" height="66" rx="8" fill="#B17A58"/>
  <rect x="566" y="742" width="18" height="66" rx="8" fill="#B17A58"/>

  <rect x="114" y="826" width="672" height="238" rx="40" fill="#8E4452"/>
  <text x="450" y="900" text-anchor="middle" font-family="Manrope, sans-serif" font-size="56" font-weight="800" fill="#FFF9EE">ҰЗАТУ ШАҚЫРУ</text>
  <text x="450" y="956" text-anchor="middle" font-family="Manrope, sans-serif" font-size="34" font-weight="600" fill="#FCEAD0">Берекелі күн</text>

  <circle cx="770" cy="774" r="38" fill="#8E4452"/>
  <path d="M758 757 L784 774 L758 791 Z" fill="#F9EBD3"/>

  <text x="450" y="1098" text-anchor="middle" font-family="Unbounded, sans-serif" font-size="42" font-weight="700" fill="#1E2C2D">shaqyrtu.kz</text>
</svg>
